<svg width="106" height="20" viewBox="0 0 106 20" fill="none" xmlns="http://www.w3.org/2000/svg">
<g clip-path="url(#clip0_4884_3492)">
<path d="M17.1951 0.382477H21.2379V19.6412H16.7519V7.59684L11.0813 14.5284H10.2024L4.48593 7.56627V19.6412H-0.00012207V0.382477H4.04268L10.6227 8.58271L17.1951 0.382477Z" fill="#2C3462"/>
<path d="M38.991 6.05295V19.641H35.2463L34.9712 18.0209C33.8172 19.2895 32.3116 19.9162 30.4622 19.9162C29.1935 19.9162 28.0701 19.6181 27.0919 19.022C26.1137 18.4259 25.3418 17.5929 24.7916 16.5153C24.2413 15.4454 23.9662 14.215 23.9662 12.8393C23.9662 11.4637 24.2413 10.241 24.7916 9.16338C25.3418 8.09346 26.106 7.2528 27.0919 6.6567C28.0701 6.06059 29.1935 5.76254 30.4622 5.76254C31.3793 5.76254 32.2199 5.92303 32.9918 6.24401C33.7637 6.56499 34.4209 7.03117 34.9712 7.63492L35.2463 6.03767H38.991V6.05295ZM33.8172 15.3384C34.4209 14.7041 34.7266 13.8787 34.7266 12.847C34.7266 11.8153 34.4209 10.9899 33.8172 10.3556C33.2134 9.72127 32.4339 9.40794 31.4786 9.40794C30.5233 9.40794 29.7514 9.72892 29.1553 10.3709C28.5592 11.0128 28.2612 11.8382 28.2612 12.847C28.2612 13.8558 28.5592 14.6812 29.1553 15.3231C29.7514 15.9651 30.5233 16.286 31.4786 16.286C32.4339 16.286 33.2134 15.9727 33.8172 15.3384Z" fill="#2C3462"/>
<path d="M41.0086 18.189L42.6594 15.2161C43.3166 15.6212 44.0885 15.9345 44.9597 16.1485C45.8309 16.3701 46.6945 16.4771 47.5581 16.4771C48.7503 16.4771 49.3464 16.1561 49.3464 15.5142C49.3464 15.1855 49.1783 14.9333 48.8497 14.7729C48.521 14.6124 47.9708 14.4977 47.1989 14.4442C45.4717 14.3525 44.1038 13.9246 43.0873 13.1527C42.0709 12.3808 41.5589 11.372 41.5589 10.1263C41.5589 8.76598 42.1091 7.68841 43.2096 6.8936C44.3101 6.0988 45.7927 5.69376 47.6651 5.69376C48.7274 5.69376 49.7438 5.82368 50.7067 6.07587C51.6697 6.33571 52.5027 6.68726 53.1981 7.1458L51.5168 10.0346C50.4928 9.44614 49.27 9.15574 47.8562 9.15574C46.4423 9.15574 45.7622 9.48436 45.7622 10.1492C45.7622 10.4244 45.9074 10.6383 46.1901 10.7836C46.4729 10.9288 46.9544 11.0434 47.6345 11.1122C49.5757 11.2574 51.0583 11.7006 52.0747 12.4343C53.0912 13.168 53.6032 14.192 53.6032 15.5142C53.6032 16.9051 53.0453 18.0056 51.9219 18.8004C50.7985 19.5952 49.2547 20.0002 47.2753 20.0002C44.8756 20.0002 42.7816 19.3965 41.001 18.1813L41.0086 18.189Z" fill="#2C3462"/>
<path d="M54.6656 18.189L56.3164 15.2161C56.9736 15.6212 57.7455 15.9345 58.6167 16.1485C59.4879 16.3701 60.3515 16.4771 61.2151 16.4771C62.4073 16.4771 63.0034 16.1561 63.0034 15.5142C63.0034 15.1855 62.8353 14.9333 62.5066 14.7729C62.178 14.6124 61.6278 14.4977 60.8559 14.4442C59.1287 14.3525 57.7608 13.9246 56.7443 13.1527C55.7279 12.3808 55.2159 11.372 55.2159 10.1263C55.2159 8.76598 55.7661 7.68841 56.8666 6.8936C57.9671 6.0988 59.4497 5.69376 61.3221 5.69376C62.3844 5.69376 63.4008 5.82368 64.3637 6.07587C65.3267 6.33571 66.1597 6.68726 66.8551 7.1458L65.1738 10.0346C64.1497 9.44614 62.927 9.15574 61.5131 9.15574C60.0993 9.15574 59.4191 9.48436 59.4191 10.1492C59.4191 10.4244 59.5643 10.6383 59.8471 10.7836C60.1299 10.9288 60.6113 11.0434 61.2915 11.1122C63.2327 11.2574 64.7153 11.7006 65.7317 12.4343C66.7481 13.168 67.2602 14.192 67.2602 15.5142C67.2602 16.9051 66.7023 18.0056 65.5789 18.8004C64.4554 19.5952 62.9117 20.0002 60.9323 20.0002C58.5326 20.0002 56.4386 19.3965 54.658 18.1813L54.6656 18.189Z" fill="#2C3462"/>
<path d="M69.7439 4.0428C69.2777 3.59954 69.0408 3.04165 69.0408 2.36148C69.0408 1.68131 69.2777 1.09285 69.7592 0.657241C70.2406 0.221628 70.8444 0 71.578 0C72.3117 0 72.9154 0.221628 73.3969 0.657241C73.8784 1.09285 74.1153 1.66603 74.1153 2.36148C74.1153 3.05694 73.8784 3.59954 73.4122 4.0428C72.946 4.48605 72.3346 4.70004 71.5857 4.70004C70.8367 4.70004 70.2253 4.47841 69.7592 4.0428H69.7439ZM69.4 6.05273H73.7179V19.6408H69.4V6.05273Z" fill="#2C3462"/>
<path d="M86.557 6.05264H91.15L85.403 19.6407H81.001L75.2234 6.05264H79.9311L81.5512 10.1489L83.2326 15.0706L84.9139 10.1489L86.5646 6.05264H86.557Z" fill="#2C3462"/>
<path d="M102.453 6.58781C103.538 7.1457 104.364 7.93286 104.944 8.95693C105.525 9.981 105.808 11.1656 105.808 12.5183C105.808 12.9615 105.762 13.4965 105.67 14.1384H95.6819C95.8119 14.8339 96.1863 15.3994 96.813 15.8274C97.4397 16.2554 98.2345 16.477 99.2051 16.477C99.8852 16.477 100.542 16.3776 101.184 16.1713C101.826 15.9726 102.377 15.6822 102.835 15.3154L105.09 17.738C104.318 18.4564 103.408 19.0066 102.354 19.3887C101.299 19.7708 100.176 19.9695 98.9834 19.9695C97.4091 19.9695 96.0411 19.6791 94.8871 19.106C93.7332 18.5328 92.839 17.7074 92.22 16.6451C91.5933 15.5828 91.2876 14.3219 91.2876 12.8774C91.2876 11.433 91.5933 10.2485 92.2123 9.16327C92.8237 8.07806 93.6873 7.24505 94.7878 6.64894C95.8883 6.05284 97.1646 5.75479 98.609 5.75479C100.053 5.75479 101.375 6.03756 102.461 6.59545L102.453 6.58781ZM96.6372 9.82052C96.0946 10.2638 95.7889 10.8752 95.7125 11.6623H101.712C101.658 10.8752 101.368 10.2561 100.848 9.82052C100.328 9.37726 99.6254 9.16327 98.7465 9.16327C97.8677 9.16327 97.1798 9.3849 96.6449 9.82052H96.6372Z" fill="#2C3462"/>
</g>
<defs>
<clipPath id="clip0_4884_3492">
<rect width="105.808" height="20" fill="white"/>
</clipPath>
</defs>
</svg>
